<svg xmlns="http://www.w3.org/2000/svg" width="500" height="300" viewBox="0 0 500 300">
  <rect width="500" height="300" fill="#0a0c0e" rx="12"/>

  <text x="250" y="28" text-anchor="middle" font-family="monospace" font-size="13" fill="#00FFCD" letter-spacing="3">CYBERSECURITY THREATS</text>
  <line x1="60" y1="35" x2="440" y2="35" stroke="#00FFCD" stroke-width="0.5" opacity=".4"/>

  <!-- shield -->
  <path d="M250 55 L300 75 L300 140 Q300 185 250 210 Q200 185 200 140 L200 75 Z" fill="#0d2b26" stroke="#00FFCD" stroke-width="2.5"/>
  <text x="250" y="145" text-anchor="middle" font-family="monospace" font-size="30" fill="#00FFCD">🔒</text>
  <text x="250" y="175" text-anchor="middle" font-family="monospace" font-size="8" fill="#00FFCD" opacity=".6">PROTECTED</text>

  <!-- threats left -->
  <rect x="18" y="60" width="90" height="24" rx="5" fill="#1a0808" stroke="#ff4444" stroke-width="1.5"/>
  <text x="63" y="76" text-anchor="middle" font-family="monospace" font-size="9" fill="#ff6666">💀 MALWARE</text>

  <rect x="18" y="100" width="90" height="24" rx="5" fill="#1a0808" stroke="#ff4444" stroke-width="1.5"/>
  <text x="63" y="116" text-anchor="middle" font-family="monospace" font-size="9" fill="#ff6666">🎣 PHISHING</text>

  <rect x="18" y="140" width="90" height="24" rx="5" fill="#1a0808" stroke="#ff4444" stroke-width="1.5"/>
  <text x="63" y="156" text-anchor="middle" font-family="monospace" font-size="8" fill="#ff6666">🕵️ SOCIAL ENG</text>

  <rect x="18" y="180" width="90" height="24" rx="5" fill="#1a0808" stroke="#ff4444" stroke-width="1.5"/>
  <text x="63" y="196" text-anchor="middle" font-family="monospace" font-size="9" fill="#ff6666">🔓 RANSOMWARE</text>

  <!-- threat arrows blocked -->
  <line x1="108" y1="72"  x2="198" y2="105" stroke="#ff4444" stroke-width="1.5" stroke-dasharray="5 3" opacity=".7"/>
  <line x1="108" y1="112" x2="198" y2="125" stroke="#ff4444" stroke-width="1.5" stroke-dasharray="5 3" opacity=".7"/>
  <line x1="108" y1="152" x2="198" y2="145" stroke="#ff4444" stroke-width="1.5" stroke-dasharray="5 3" opacity=".7"/>
  <line x1="108" y1="192" x2="198" y2="165" stroke="#ff4444" stroke-width="1.5" stroke-dasharray="5 3" opacity=".7"/>

  <!-- BLOCKED X marks -->
  <text x="160" y="98"  font-family="monospace" font-size="12" fill="#ff4444">✕</text>
  <text x="160" y="120" font-family="monospace" font-size="12" fill="#ff4444">✕</text>
  <text x="160" y="142" font-family="monospace" font-size="12" fill="#ff4444">✕</text>
  <text x="160" y="164" font-family="monospace" font-size="12" fill="#ff4444">✕</text>

  <!-- defences right -->
  <rect x="392" y="60" width="90" height="24" rx="5" fill="#0d2b26" stroke="#00FFCD" stroke-width="1.5"/>
  <text x="437" y="76" text-anchor="middle" font-family="monospace" font-size="9" fill="#00FFCD">🛡 FIREWALL</text>

  <rect x="392" y="100" width="90" height="24" rx="5" fill="#0d2b26" stroke="#00FFCD" stroke-width="1.5"/>
  <text x="437" y="116" text-anchor="middle" font-family="monospace" font-size="9" fill="#00FFCD">🔐 ENCRYPT</text>

  <rect x="392" y="140" width="90" height="24" rx="5" fill="#0d2b26" stroke="#00FFCD" stroke-width="1.5"/>
  <text x="437" y="156" text-anchor="middle" font-family="monospace" font-size="9" fill="#00FFCD">💾 BACKUP</text>

  <rect x="392" y="180" width="90" height="24" rx="5" fill="#0d2b26" stroke="#00FFCD" stroke-width="1.5"/>
  <text x="437" y="196" text-anchor="middle" font-family="monospace" font-size="9" fill="#00FFCD">👁 MONITOR</text>

  <line x1="302" y1="105" x2="390" y2="72"  stroke="#00FFCD" stroke-width="1" stroke-dasharray="4 3" opacity=".5"/>
  <line x1="302" y1="125" x2="390" y2="112" stroke="#00FFCD" stroke-width="1" stroke-dasharray="4 3" opacity=".5"/>
  <line x1="302" y1="145" x2="390" y2="152" stroke="#00FFCD" stroke-width="1" stroke-dasharray="4 3" opacity=".5"/>
  <line x1="302" y1="165" x2="390" y2="192" stroke="#00FFCD" stroke-width="1" stroke-dasharray="4 3" opacity=".5"/>

  <text x="63"  y="240" text-anchor="middle" font-family="monospace" font-size="9" fill="#ff4444" opacity=".6">ATTACK VECTORS</text>
  <text x="437" y="240" text-anchor="middle" font-family="monospace" font-size="9" fill="#00FFCD" opacity=".6">COUNTERMEASURES</text>
  <text x="250" y="278" text-anchor="middle" font-family="monospace" font-size="9" fill="#00FFCD" opacity=".5">All threats mitigated — system secure ✓</text>
</svg>
